<?xml version="1.0" encoding="utf-8"?>
<!-- Generator: Adobe Illustrator 23.0.0, SVG Export Plug-In . SVG Version: 6.00 Build 0)  -->
<svg version="1.1" id="Layer_1" xmlns="http://www.w3.org/2000/svg" xmlns:xlink="http://www.w3.org/1999/xlink" x="0px" y="0px"
	 viewBox="0 0 1535 1000" style="enable-background:new 0 0 1535 1000;" xml:space="preserve">
<style type="text/css">
	.st0{fill-rule:evenodd;clip-rule:evenodd;}
</style>
<g>
	<polygon class="st0" points="824.2,399.4 824.2,498.7 969.4,498.7 968.9,499.1 966.8,503.4 966.4,503.9 963.8,509 963.4,509.4 
		961.2,513.7 960.8,514.1 958.3,519.3 957.9,519.7 955.7,524 955.2,524.4 952.6,529.5 952.2,530 950.1,534.2 949.6,534.7 
		947.1,539.9 946.7,540.3 944.1,545.4 943.7,545.8 941.5,550.2 941.1,550.6 938.6,555.7 938.1,556.1 936,560.4 935.6,560.8 933,566 
		932.5,566.4 930.3,570.7 929.9,571.1 927.4,576.2 927,576.6 924.4,581.8 924,582.3 921.8,586.5 921.4,586.9 918.9,592.1 
		918.4,592.6 916.3,596.8 915.9,597.3 913.3,602.4 912.8,602.8 910.7,607.1 910.2,607.5 907.7,612.7 907.3,613.1 904.7,618.2 
		904.3,618.6 902.1,622.9 901.7,623.3 899.1,628.5 898.7,628.9 896.6,633.2 896.2,633.6 893.6,638.7 893.2,639.2 891,643.5 
		890.5,643.9 888,649 887.5,649.5 885,654.7 884.6,655.1 882.4,659.4 882,659.8 879.4,664.9 879,665.3 876.9,669.6 876.5,670.1 
		873.9,675.2 873.5,675.6 871.3,679.9 870.9,680.3 868.3,685.5 867.8,685.9 865.3,691 864.9,691.4 862.7,695.7 862.3,696.1 
		859.7,701.3 859.3,701.8 857.2,706 856.7,706.4 854.2,711.6 853.8,712 851.6,716.3 851.2,716.8 848.6,721.9 848.1,722.3 
		845.6,727.4 845.1,727.9 843,732.2 842.6,732.6 840,737.7 839.6,738.1 837.4,742.4 837,742.8 834.5,748 834.1,748.4 831.9,752.7 
		831.5,753.1 828.9,758.2 828.5,758.6 825.8,763.9 825.4,764.3 823.3,768.5 822.9,769 820.3,774.1 819.9,774.6 817.7,778.9 
		817.3,779.3 814.8,784.4 814.3,784.8 812.2,789.1 811.8,789.5 809.2,794.7 808.8,795.1 806.7,799.4 806.2,799.8 1118,800.2 
		1118,700.9 973.3,700.4 973.7,700 975.4,696.6 975.8,696.1 978,691.9 978.4,691.4 980.5,687.2 981,686.8 982.6,683.3 983.1,682.9 
		985.3,678.6 985.7,678.2 987.8,673.9 988.2,673.4 989.9,670.1 990.4,669.6 992.5,665.3 993,664.9 995,660.6 995.5,660.2 
		997.2,656.8 997.7,656.3 999.7,652.1 1000.3,651.6 1002.3,647.4 1002.8,647 1004.5,643.5 1004.9,643.1 1007,638.7 1007.4,638.3 
		1009.6,634 1010.1,633.6 1011.8,630.2 1012.2,629.8 1014.3,625.5 1014.7,625.1 1016.9,620.8 1017.3,620.4 1019,617 1019.5,616.5 
		1021.6,612.3 1022,611.8 1024.2,607.5 1024.6,607.1 1026.3,603.6 1026.7,603.2 1028.9,598.9 1029.3,598.5 1031.5,594.2 
		1031.9,593.8 1033.6,590.4 1034,590 1036.2,585.7 1036.6,585.3 1038.8,581 1039.2,580.5 1040.9,577.2 1041.3,576.6 1043.5,572.4 
		1043.9,571.9 1046,567.7 1046.4,567.3 1048.2,563.8 1048.6,563.4 1050.8,559.1 1051.2,558.7 1053.3,554.4 1053.7,554 1055.9,549.6 
		1056.3,549.2 1058,545.8 1058.5,545.4 1060.6,541.1 1061,540.7 1063.2,536.4 1063.6,536 1065.3,532.6 1065.7,532.1 1067.9,527.9 
		1068.3,527.5 1070.5,523.2 1070.9,522.7 1072.6,519.3 1073,518.8 1075.2,514.5 1075.6,514.1 1077.8,509.8 1078.2,509.4 1079.9,506 
		1080.3,505.6 1082.5,501.3 1082.9,500.9 1085,496.6 1085.5,496.2 1087.1,492.8 1087.6,492.3 1089.8,488.1 1090.2,487.6 
		1092.3,483.3 1092.7,482.9 1094.4,479.4 1094.9,479 1097,474.7 1097.5,474.3 1099.5,470 1100,469.6 1101.7,466.2 1102.2,465.8 
		1104.2,461.5 1104.8,461.1 1106.8,456.7 1107.3,456.3 1109,452.9 1109.4,452.4 1111.5,448.2 1111.9,447.8 1114.1,443.5 
		1114.6,443.1 1116.3,439.6 1116.7,439.2 1118.8,434.9 1119.2,434.5 1121.4,430.2 1121.8,429.7 1123.5,426.4 1124,425.9 
		1126.1,421.6 1126.5,421.2 1128.7,416.9 1129.1,416.5 1130.8,413.1 1131.2,412.6 1133.4,408.4 1133.8,408 1136,403.7 1136.4,403.3 
		1138.1,399.8 1138.5,399.4 	"/>
	<polygon class="st0" points="1315.4,267.9 1287.6,268.3 1231.9,269.2 1231.9,399.4 1179.7,399.4 1179.7,498.7 1231.4,498.7 
		1231.4,681.1 1231.9,681.1 1231.9,689.4 1232.4,689.4 1232.4,693.2 1232.8,693.2 1232.8,697.1 1233.2,697.1 1233.2,699.6 
		1233.6,699.6 1233.6,702.2 1234.1,702.2 1234.1,705.2 1234.5,705.2 1234.5,706.9 1234.9,706.9 1234.9,709.1 1235.3,709.1 
		1235.3,710.7 1235.7,710.7 1235.7,712.9 1236.2,712.9 1236.2,714.2 1236.7,714.2 1236.7,715.8 1237.1,715.8 1237.1,717.6 
		1237.5,717.6 1237.5,719.3 1237.9,719.3 1237.9,721 1238.3,721 1238.3,721.9 1238.7,721.9 1238.7,723.1 1239.2,723.1 1239.2,724.5 
		1239.6,724.5 1239.6,725.7 1240.1,725.7 1240.1,727 1240.5,727 1240.5,728.3 1240.9,728.3 1240.9,729.2 1241.3,729.2 1241.3,730.4 
		1241.8,730.4 1241.8,731.2 1242.2,731.2 1242.2,732.6 1242.6,732.6 1242.6,733.4 1243,733.4 1243,734.7 1243.4,734.7 1243.4,736 
		1244,736 1244.4,736.5 1244.4,737.3 1244.8,737.3 1244.8,738.1 1245.2,738.1 1245.2,739 1245.6,739 1245.6,739.9 1246,739.9 
		1246,740.7 1246.5,740.7 1246.5,741.6 1246.9,741.6 1246.9,742.4 1247.3,742.4 1247.3,743.2 1247.8,743.2 1248.2,743.7 
		1248.2,744.6 1248.6,744.6 1248.6,745.4 1249.1,745.4 1249.1,746.2 1249.5,746.2 1249.9,746.7 1249.9,747.6 1250.3,747.6 
		1250.3,748.4 1250.7,748.4 1250.7,749.3 1251.1,749.3 1251.1,750.1 1251.7,750.1 1252.5,750.9 1252.5,751.9 1252.9,751.9 
		1253.3,752.3 1253.3,753.1 1253.7,753.1 1254.2,753.5 1254.2,754.4 1254.6,754.4 1255,754.8 1255,755.7 1255.5,755.7 1255.9,756.1 
		1255.9,757 1256.4,757 1257.2,757.8 1257.2,758.6 1257.6,758.6 1258.4,759.6 1258.4,760.4 1258.9,760.4 1259.8,761.3 1259.8,762.1 
		1260.2,762.1 1260.6,762.5 1260.6,763.4 1261,763.4 1263.2,765.5 1263.2,766.4 1263.6,766.4 1265.7,768.5 1265.7,769.4 
		1266.6,769.4 1271.8,774.6 1272.6,775 1277.7,780.1 1278.5,780.5 1280.7,782.7 1281.6,783.1 1283.8,785.2 1284.6,785.6 1285,786.2 
		1285.8,786.6 1286.3,787 1287.2,787.4 1288,788.2 1288.9,788.7 1289.3,789.1 1290.1,789.5 1291,790.4 1292.7,791.3 1293.1,791.7 
		1294.9,792.5 1295.3,792.9 1297,793.9 1297.4,794.3 1304.3,797.7 1305.5,798.1 1308.1,799.4 1309.4,799.8 1312,801.1 1313.2,801.6 
		1314.2,802 1315.4,802.4 1316.3,802.8 1317.6,803.2 1319.3,804.1 1327,806.7 1329.2,807.1 1330.8,807.5 1333,807.9 1334.7,808.3 
		1337.7,808.8 1342.8,809.7 1351.8,810.9 1360.4,811.8 1369.4,812.2 1369.4,811.8 1378.4,811.4 1383.1,810.9 1396,809.7 
		1398.5,809.3 1404.9,807.9 1413.5,805.8 1423.8,802.4 1425.4,802 1431.9,799.8 1432.7,799.4 1434.1,799 1435.8,798.1 1437,797.7 
		1454.2,789.1 1454.6,788.7 1456.3,787.8 1456.8,787.4 1457.6,787 1458.1,786.6 1458.9,786.2 1459.3,785.6 1460.1,785.2 
		1460.7,784.8 1461.5,784.4 1461.9,784 1462.7,783.5 1463.2,783.1 1464,782.7 1464.5,782.3 1465.4,781.8 1466.2,780.9 1467,780.5 
		1467.4,780.1 1468.4,779.7 1468.8,779.3 1469.6,778.9 1470,778.4 1470.5,776.7 1470,776.7 1470,775.4 1469.6,775.4 1469.6,774.1 
		1469.2,774.1 1469.2,772.8 1468.8,772.8 1468.8,771.6 1468.4,771.6 1468.4,769.8 1467.9,769.8 1467.9,768.5 1467.4,768.5 
		1467.4,767.3 1467,767.3 1467,765.9 1466.6,765.9 1466.6,764.7 1466.2,764.7 1466.2,763 1465.8,763 1465.8,761.7 1465.4,761.7 
		1465.4,760.4 1464.9,760.4 1464.9,759.2 1464.5,759.2 1464.5,757.8 1464,757.8 1464,756.1 1463.6,756.1 1463.6,754.8 1463.2,754.8 
		1463.2,753.5 1462.7,753.5 1462.7,752.3 1462.3,752.3 1462.3,750.9 1461.9,750.9 1461.9,749.3 1461.5,749.3 1461.5,748 1461.1,748 
		1461.1,746.7 1460.7,746.7 1460.7,745.4 1460.1,745.4 1460.1,744.2 1459.7,744.2 1459.7,742.4 1459.3,742.4 1459.3,741.1 
		1458.9,741.1 1458.9,739.9 1458.5,739.9 1458.5,738.5 1458.1,738.5 1458.1,737.3 1457.6,737.3 1457.6,735.5 1457.2,735.5 
		1457.2,734.3 1456.8,734.3 1456.8,733 1456.3,733 1456.3,731.7 1455.9,731.7 1455.9,730.4 1455.5,730.4 1455.5,728.7 1455,728.7 
		1455,727.4 1454.6,727.4 1454.6,726.1 1454.2,726.1 1454.2,724.9 1453.8,724.9 1453.8,723.5 1453.4,723.5 1453.4,721.9 1453,721.9 
		1453,720.6 1452.4,720.6 1452.4,719.3 1452,719.3 1452,718 1451.6,718 1451.6,716.8 1451.2,716.8 1451.2,715 1450.8,715 
		1450.8,713.7 1450.3,713.7 1450.3,712.5 1449.9,712.5 1449.9,711.1 1449.5,711.1 1449.5,709.9 1449.1,709.9 1449.1,708.1 
		1448.6,708.1 1448.6,706.9 1448.2,706.9 1448.2,705.6 1447.7,705.6 1447.7,704.3 1447.3,704.3 1447.3,703 1446.9,703 1446.9,701.3 
		1446.5,701.3 1446.5,700 1446.1,700 1446.1,698.7 1445.7,698.7 1445.7,697.5 1445.2,697.5 1445.2,696.1 1444.7,696.1 1444.7,694.5 
		1444.3,694.5 1444.3,693.2 1443.9,693.2 1443.9,691.9 1443.5,691.9 1443.5,690.6 1443.1,690.6 1443.1,689.4 1441.8,689.4 
		1440.9,689.8 1439.6,690.2 1438.8,690.6 1437.5,691 1436.6,691.4 1435.3,691.9 1434.5,692.3 1433.2,692.7 1432.3,693.2 
		1418.3,697.9 1416.5,698.3 1413.9,699.2 1403.7,701.8 1401.5,702.2 1396.4,703 1391.3,703.4 1386.5,703.8 1377.5,704.3 
		1377.5,703.8 1373.2,703 1370.6,702.2 1369,701.8 1368.1,701.3 1366.8,700.9 1366,700.4 1364.7,700 1364.3,699.6 1363.4,699.2 
		1362.9,698.7 1361.3,697.9 1360,696.6 1359.1,696.1 1358.2,695.3 1357.4,694.9 1351.8,689.4 1351.4,689.4 1351.4,688.4 1351,688 
		1350.5,688 1350.5,687.2 1350.1,686.8 1349.7,686.8 1349.7,685.9 1349.3,685.5 1348.9,685.5 1348.9,684.6 1348.5,684.6 
		1348.5,683.7 1347.9,683.7 1347.9,682.9 1347.5,682.9 1347.5,682.1 1347.1,681.7 1346.7,681.7 1346.7,680.3 1346.3,680.3 
		1346.3,679.5 1345.8,679.5 1345.8,678.2 1345.4,678.2 1345.4,677.3 1345,677.3 1345,676 1344.6,676 1344.6,674.8 1344.1,674.8 
		1344.1,673.4 1343.7,673.4 1343.7,670.9 1343.2,670.9 1343.2,668.7 1342.8,668.7 1342.8,498.7 1449.9,498.7 1449.9,399.4 
		1342.8,399.4 1342.8,267.9 	"/>
	<polygon class="st0" points="611.3,267.9 583.5,268.3 527.8,269.2 527.8,399.4 476,399.4 476,498.7 527.8,498.7 527.8,689.4 
		528.3,689.4 528.3,693.2 528.7,693.2 528.7,697.1 529.1,697.1 529.1,699.6 529.5,699.6 529.5,702.2 530,702.2 530,705.2 
		530.4,705.2 530.4,706.9 530.8,706.9 530.8,709.1 531.2,709.1 531.2,710.7 531.6,710.7 531.6,712.9 532.1,712.9 532.1,714.2 
		532.6,714.2 532.6,715.8 533,715.8 533,717.6 533.4,717.6 533.4,719.3 533.8,719.3 533.8,721 534.2,721 534.2,721.9 534.6,721.9 
		534.6,722.7 535.1,722.7 535.1,724.1 535.5,724.1 535.5,724.9 536,724.9 536,726.1 536.4,726.1 536.4,727 536.8,727 536.8,728.3 
		537.2,728.3 537.2,729.2 537.7,729.2 537.7,730.4 538.1,730.4 538.1,731.2 538.5,731.2 538.5,732.6 538.9,732.6 538.9,733.4 
		539.3,733.4 539.3,734.7 539.9,734.7 539.9,736 540.3,736 540.3,736.9 540.7,736.9 540.7,737.7 541.1,737.7 541.1,738.5 
		541.5,738.5 541.5,739.4 541.9,739.4 541.9,740.3 542.4,740.3 542.4,741.1 542.8,741.1 542.8,742 543.2,742 543.2,743.2 
		543.7,743.2 544.1,743.7 544.1,744.6 544.5,744.6 545,745 545,745.8 545.4,745.8 545.4,746.7 545.8,746.7 546.2,747.1 546.2,748 
		546.6,748 547,748.4 547,749.3 547.6,749.3 547.6,750.1 548,750.1 548.4,750.5 548.4,751.5 548.8,751.5 549.2,751.9 549.2,752.7 
		549.6,752.7 549.6,753.5 550.1,753.5 550.5,754 550.5,754.8 550.9,754.8 551.4,755.3 551.4,756.1 551.8,756.1 551.8,757 552.2,757 
		553.5,758.2 553.5,759.2 553.9,759.2 555.3,760.4 555.3,761.3 555.7,761.3 556.9,762.5 556.9,763.4 557.4,763.4 559.5,765.5 
		559.5,766.4 560,766.4 562,768.5 562,769.4 562.5,769.4 567.7,774.6 568.5,775 573.6,780.1 574.5,780.5 575.8,781.8 576.6,782.3 
		577.9,783.5 578.8,784 580.1,785.2 580.9,785.6 581.3,786.2 582.3,786.6 583.1,787.4 583.9,787.8 584.8,788.7 585.6,789.1 
		586.5,790 588.2,790.8 588.6,791.3 589.4,791.7 589.9,792.1 591.6,792.9 592,793.3 592.9,793.9 593.3,794.3 594.7,794.7 
		600.6,797.7 601.9,798.1 607.9,801.1 610.5,802 611.3,802.4 612.6,802.8 613.5,803.2 614.8,803.7 615.6,804.1 623.3,806.7 
		625.5,807.1 627.2,807.5 629.3,807.9 631,808.3 634,808.8 639.1,809.7 645.2,810.5 647.7,810.9 652.5,811.4 656.8,811.8 
		665.7,812.2 665.7,811.8 674.7,811.4 683.3,810.5 688,810.1 692.3,809.7 703,807.5 711.6,805.4 725.7,800.6 726.6,800.2 
		727.8,799.8 728.6,799.4 730,799 731.7,798.1 732.9,797.7 734.7,796.8 735.9,796.4 746.2,791.3 746.7,790.8 750.1,789.1 
		750.5,788.7 752.2,787.8 752.7,787.4 753.5,787 754,786.6 754.8,786.2 755.2,785.6 756,785.2 756.6,784.8 757.4,784.4 757.8,784 
		758.6,783.5 759.1,783.1 759.9,782.7 760.4,782.3 761.3,781.8 761.7,781.4 762.5,780.9 762.9,780.5 763.8,780.1 764.3,779.7 
		765.1,779.3 765.5,778.9 766.4,778.4 766.8,776.7 766.4,776.7 766.4,775.4 765.9,775.4 765.9,774.1 765.5,774.1 765.5,772.8 
		765.1,772.8 765.1,771.6 764.7,771.6 764.7,770.2 764.3,770.2 764.3,768.5 763.8,768.5 763.8,767.3 763.3,767.3 763.3,765.9 
		762.9,765.9 762.9,764.7 762.5,764.7 762.5,763.4 762.1,763.4 762.1,762.1 761.7,762.1 761.7,760.8 761.3,760.8 761.3,759.2 
		760.8,759.2 760.8,757.8 760.4,757.8 760.4,756.6 759.9,756.6 759.9,755.3 759.5,755.3 759.5,754 759.1,754 759.1,752.7 
		758.6,752.7 758.6,750.9 758.2,750.9 758.2,749.7 757.8,749.7 757.8,748.4 757.4,748.4 757.4,747.1 757,747.1 757,745.8 
		756.6,745.8 756.6,744.6 756,744.6 756,743.2 755.6,743.2 755.6,741.6 755.2,741.6 755.2,740.3 754.8,740.3 754.8,739 754.4,739 
		754.4,737.7 754,737.7 754,736.5 753.5,736.5 753.5,735.1 753.1,735.1 753.1,733.9 752.7,733.9 752.7,732.2 752.2,732.2 
		752.2,730.8 751.8,730.8 751.8,729.6 751.4,729.6 751.4,728.3 750.9,728.3 750.9,727 750.5,727 750.5,725.7 750.1,725.7 
		750.1,724.1 749.7,724.1 749.7,722.7 749.3,722.7 749.3,721.5 748.9,721.5 748.9,720.2 748.3,720.2 748.3,718.8 747.9,718.8 
		747.9,717.6 747.5,717.6 747.5,716.3 747.1,716.3 747.1,714.6 746.7,714.6 746.7,713.3 746.2,713.3 746.2,712 745.8,712 
		745.8,710.7 745.4,710.7 745.4,709.5 745,709.5 745,708.1 744.5,708.1 744.5,706.4 744.1,706.4 744.1,705.2 743.6,705.2 
		743.6,703.8 743.2,703.8 743.2,702.6 742.8,702.6 742.8,701.3 742.4,701.3 742.4,700 742,700 742,698.7 741.6,698.7 741.6,697.1 
		741.1,697.1 741.1,695.7 740.6,695.7 740.6,694.5 740.2,694.5 740.2,693.2 739.8,693.2 739.8,691.9 739.4,691.9 739.4,690.6 
		739,690.6 739,689.4 737.7,689.4 736.8,689.8 735.5,690.2 733.8,691 732.5,691.4 730.8,692.3 729.6,692.7 728.6,693.2 719.7,696.1 
		718,696.6 714.2,697.9 712.4,698.3 709.8,699.2 697.8,702.2 692.7,703 687.6,703.4 682.9,703.8 673.4,704.3 673.4,703.8 669.1,703 
		666.5,702.2 664.9,701.8 657.2,697.9 654.6,695.3 653.7,694.9 651.1,692.3 650.3,691.9 647.7,689.4 647.3,689.4 647.3,688.4 
		646.9,688 646.4,688 646.4,687.2 646,686.8 645.6,686.8 645.6,685.9 645.2,685.5 644.8,685.5 644.8,684.6 644.4,684.6 644.4,683.7 
		643.8,683.7 643.8,682.9 643.4,682.9 643.4,682.1 643,681.7 642.6,681.7 642.6,680.3 642.2,680.3 642.2,679.5 641.7,679.5 
		641.7,678.2 641.3,678.2 641.3,677.3 640.9,677.3 640.9,675.2 640.5,675.2 640.5,673.4 640,673.4 640,670.9 639.6,670.9 
		639.6,668.7 639.1,668.7 639.1,664.5 638.7,664.5 638.7,498.7 746.2,498.7 746.2,399.4 638.7,399.4 638.7,267.9 	"/>
	<polygon class="st0" points="277.5,99.1 277.1,606.2 275.4,616.5 274.5,620.8 274.1,623.3 273.3,627.7 269.4,639.2 269,640.1 
		268.6,641.3 266.4,645.6 266,647 263,652.9 262.5,653.3 262.1,654.1 261.7,654.7 261.3,655.5 260.9,655.9 260.3,656.8 259.9,657.2 
		259.5,658 258.7,658.9 258.3,659.8 257.4,660.6 257,661.4 255.7,662.8 255.2,663.6 254,664.9 253.6,665.7 245,674.4 244.1,674.8 
		243.3,675.6 242.4,676 241.2,677.3 240.2,677.8 239.4,678.6 238.6,679 238.2,679.5 236.4,680.3 236,680.7 234.3,681.7 233.9,682.1 
		232.1,682.9 231.7,683.3 229.1,684.6 225.2,685.9 224.4,686.3 223.2,686.8 222.3,687.2 221,687.6 220.1,688 216.3,689.4 
		214.2,689.8 211.6,690.2 209.4,690.6 206.9,691 202.1,691.4 191.5,691.9 191.5,691.4 185.9,691 184.2,690.6 177.7,689.4 
		175.1,688.4 170,687.2 166.6,685.5 165.3,685 164.5,684.6 163.1,684.2 162.3,683.7 161.1,683.3 160.6,682.9 158.9,682.1 
		158.5,681.7 156.8,680.7 156.4,680.3 152.9,678.6 151.2,676.9 150.3,676.4 149.1,675.2 148.1,674.8 146.9,673.4 146.1,673 
		144.8,671.8 143.9,671.3 142.6,670.1 141.8,669.6 140.5,668.3 139.6,667.9 116,644.4 115.6,644.4 101.5,658.5 101,659.4 69.4,691 
		69,691.9 36.9,724.1 38.9,726.1 38.9,727 39.4,727 41.1,728.7 41.1,729.6 41.6,729.6 43.2,731.2 43.2,732.2 43.6,732.2 45.4,733.9 
		45.4,734.7 45.8,734.7 47.5,736.5 47.5,737.3 48,737.3 49.7,739 49.7,739.9 50.1,739.9 51.9,741.6 51.9,742.4 52.3,742.4 57,747.1 
		57,748 57.4,748 63.4,754 63.4,754.8 64.3,754.8 70.6,761.3 71.6,761.7 73.2,763.4 74.1,763.9 76.2,765.9 77.1,766.4 79.3,768.5 
		80.1,769 80.5,769.4 81.4,769.8 82.2,770.7 83.1,771.2 84,772 84.8,772.4 85.6,773.2 86.6,773.7 87.4,774.6 88.2,775 89.1,775.8 
		89.9,776.3 90.4,776.7 91.3,777.1 91.7,777.5 92.5,777.9 92.9,778.4 93.8,778.9 94.3,779.3 95.9,780.1 96.4,780.5 98.1,781.4 
		98.5,781.8 99.4,782.3 99.8,782.7 102.4,784 102.8,784.4 105.3,785.6 105.8,786.2 108.3,787.4 108.8,787.8 111.4,789.1 
		111.8,789.5 113,790 114.8,790.8 116,791.3 118.7,792.5 119.9,792.9 125.1,795.5 131.5,797.7 132.3,798.1 138.8,800.2 139.6,800.6 
		143,801.6 144.3,802 146.1,802.4 147.3,802.8 150.7,803.7 152,804.1 153.8,804.5 155,804.9 163.6,806.7 169.6,807.5 172.2,807.9 
		180.7,808.8 190.1,809.7 209,810.1 209,809.7 214.2,809.3 223.6,808.3 227.8,807.9 231.3,807.5 237.3,806.7 239.8,806.3 
		246.3,804.9 248.9,804.5 255.2,803.2 257,802.8 259.5,802 261.3,801.6 263.8,800.6 265.6,800.2 268.1,799.4 269.8,799 273.7,797.7 
		274.5,797.2 275.8,796.8 277.5,795.9 278.8,795.5 280.6,794.7 281.8,794.3 282.6,793.9 284,793.3 284.8,792.9 286.1,792.5 
		286.9,792.1 288.3,791.7 306.2,782.7 306.6,782.3 308.4,781.4 308.8,780.9 310.5,780.1 311,779.7 311.8,779.3 312.2,778.9 
		313.9,777.9 314.3,777.5 315.3,777.1 315.7,776.7 316.5,776.3 316.9,775.8 317.8,775.4 318.2,775 319.1,774.6 319.5,774.1 
		320.4,773.7 321.2,772.8 322,772.4 323,771.6 323.8,771.2 324.6,770.2 325.5,769.8 326.4,769 327.2,768.5 328.5,767.3 329.3,766.9 
		330.7,765.5 331.5,765.1 333.2,763.4 334.1,763 339.6,757.4 340.5,757 351.6,745.8 352,745 353.8,743.2 354.2,742.4 355.5,741.1 
		355.9,740.3 357.2,739 357.7,738.1 358.5,737.3 358.9,736.5 359.3,736 359.7,735.1 360.6,734.3 361.1,733.4 361.5,733 361.9,732.2 
		362.3,731.7 362.8,730.8 363.6,730 364,729.2 364.4,728.7 365,727.9 365.8,727 366.2,726.1 366.6,725.7 367,724.9 367.5,724.5 
		367.9,723.5 368.3,723.1 368.8,722.3 369.2,721.9 370.1,720.2 370.5,719.7 371.3,718 371.7,717.6 372.6,715.8 373.1,715.4 
		373.9,713.7 374.3,713.3 375.6,710.7 376,710.3 379,704.3 379.4,703 380.8,700.4 381.2,699.2 382.9,695.7 383.3,694.5 384.6,691.9 
		385.1,690.6 385.5,689.8 385.9,688.4 386.3,687.6 387.1,685 387.6,684.2 390.2,676.4 390.6,674.8 391.8,670.9 392.4,669.2 
		392.8,667.9 394.4,661 394.9,658.9 395.3,657.2 396.2,652.9 396.6,651.2 398.3,642.6 399.1,635.8 399.5,632 400.5,625.1 
		400.9,621.2 401.3,610.5 401.7,99.1 	"/>
</g>
</svg>
